<svg xmlns="http://www.w3.org/2000/svg" width="32" height="32" viewBox="0 0 32 32">
  <g fill="none" fill-rule="evenodd">
    <circle cx="16" cy="16" r="16" fill="#B7B7B7"/>
    <path fill="#FFF" fill-rule="nonzero" d="M1.39793798 3.44933333C1.24990698 3.44933333 1.12532558 3.50202322 1.06248062 3.60490216.997674419 3.71105804 1.00748062 3.84791376 1.07663566 3.98640796L2.73968217 6.89780431C2.74249612 6.90332338 2.74249612 6.90685904 2.73968217 6.91194693L.126286822 11.5759071C.0581550388 11.713194.0614806202 11.8510846.126286822 11.9574992.189046512 12.0598607.299643411 12.1270381.447844961 12.1270381L2.90741085 12.1270381C3.27510078 12.1270381 3.45255039 11.8760929 3.57824031 11.6467065 3.57824031 11.6467065 6.13407752 7.07536318 6.23358915 6.89789055 6.22352713 6.8815058 4.54265891 3.91586733 4.54265891 3.91586733 4.41995349 3.69536318 4.23517054 3.44933333 3.85793023 3.44933333L1.39793798 3.44933333 1.39793798 3.44933333zM11.7311163.0432039801C11.3636822.0432039801 11.2044806.277247098 11.0725659.516981758 11.0725659.516981758 5.7738062 10.0201327 5.59917054 10.3321327 5.60812403 10.3490348 9.09393023 16.8162653 9.09393023 16.8162653 9.21603876 17.0368557 9.4044031 17.2900431 9.78121705 17.2900431L12.2378837 17.2900431C12.3860853 17.2900431 12.5018837 17.2336451 12.5643023 17.1311111 12.6299612 17.0250415 12.6280853 16.8847363 12.5592713 16.7466733L9.09179845 10.3398076C9.08846613 10.3348974 9.08846613 10.3284194 9.09179845 10.3235091L14.5374806.585797678C14.6059535.448338308 14.6074031.308119403 14.5426822.20187728 14.4799225.0994295191 14.3637829.0429452736 14.2155814.0429452736L11.7308605.0429452736 11.7308605.0429452736 11.7311163.0429452736 11.7311163.0432039801z" transform="translate(8.667 7.333)"/>
  </g>
</svg>
