<svg xmlns="http://www.w3.org/2000/svg" viewBox="0 0 750 936">
  <g fill="none" fill-rule="evenodd">
    <path d="M0 0h750v936H0z"/>
    <g transform="translate(177 39)">
      <path stroke="#4494A6" stroke-width="3" d="M370.62218827 569.35494673L.08219808 621.55147523c7.92271873 49.7592755 34.79528754 91.94472568 72.16426461 120.16944529 38.24476378 28.88619812 87.48372757 43.14924584 138.65216912 35.94137163 51.1696785-7.20809755 94.57966159-34.52310932 123.39979874-72.85724435 28.15933402-37.45518815 42.39055572-85.42995857 36.32375772-135.45010107z"/>
      <circle cx="198.127" cy="530.26" r="54.038" stroke="#DDEFF4" stroke-width="3"/>
      <ellipse cx="240.571" cy="62.36" fill="#DDEFF4" fill-rule="nonzero" stroke="#DDEFF4" stroke-width="7.131" rx="30.134" ry="30.794"/>
      <path stroke="#4494A6" stroke-width="3" d="M163.72237914 280.97687718l-56.33608698 125.05977784 124.7604173 56.46205629 56.33699838-125.05936633z"/>
      <path stroke="#FFDA51" stroke-width="3" d="M147.66437714 77.69614965l53.04785783 207.84908858 154.32181236-154.67819417z"/>
      <path stroke="#FFDA51" stroke-linecap="square" stroke-width="3" d="M356.788 482.762L47.55 454.466"/>
    </g>
  </g>
</svg>
