<svg xmlns="http://www.w3.org/2000/svg" width="79" height="97" viewBox="0 0 79 97">
  <path d="M49.5306165 75.3974819L49.5306165 72.3625255C49.5306165 67.0282292 51.6788304 61.9036481 55.4251448 58.3029981 60.1117693 53.7978838 62.6928243 47.7215181 62.6928243 41.1934579 62.6928243 28.1599222 52.1820348 17.5569329 39.2618343 17.5569329 38.3801604 17.5569329 37.4846271 17.6064042 36.6008209 17.7053468 25.4066543 18.9539593 16.4939654 28.4739574 15.8681582 39.8502046 15.4907548 46.7105829 18.0707437 53.3827551 22.9471359 58.1545843 26.7894004 61.9144028 28.9930521 67.0916815 28.9930521 72.3592991L28.9930521 75.3964065C28.9930521 78.6217199 31.5932971 81.2447754 34.7905643 81.2447754L43.7320382 81.2447754C46.9293054 81.246925 49.5306165 78.6227954 49.5306165 75.3974819zM45.2661721 75.3974819C45.2661721 76.2503241 44.5774643 76.9439977 43.7331043 76.9439977L34.7916304 76.9439977C33.9462043 76.9439977 33.2585626 76.2492486 33.2585626 75.3974819L33.2585626 72.3603745C33.2585626 65.9366343 30.5826237 59.6344213 25.9173215 55.0680056 21.9289998 51.1651505 19.8180998 45.705025 20.1272721 40.0900329 20.6390054 30.7872782 27.9226765 23.0030773 37.0709759 21.982463 37.8001959 21.9007278 38.5379448 21.8598602 39.2639665 21.8598602 49.8323259 21.8598602 58.4305121 30.5323935 58.4305121 41.1945333 58.4305121 46.5342069 56.3196121 51.5039213 52.4858765 55.1895329 47.8994665 59.5978556 45.2683043 65.85705 45.2683043 72.3636009L45.2683043 75.3974819 45.2661721 75.3974819zM46.2011515 83.3709644L32.3225171 83.3709644C31.4387109 83.3709644 30.7233504 84.0926 30.7233504 84.9841588 30.7233504 85.8757176 31.4387109 86.5973532 32.3225171 86.5973532L46.2022176 86.5973532C47.0860237 86.5973532 47.8013843 85.8757176 47.8013843 84.9841588 47.8013843 84.0926 47.0849576 83.3709644 46.2011515 83.3709644zM47.8003182 90.0818532C47.8003182 89.1902944 47.0849576 88.4686588 46.2011515 88.4686588L32.3225171 88.4686588C31.4387109 88.4686588 30.7233504 89.1902944 30.7233504 90.0818532 30.7233504 90.973412 31.4387109 91.6950477 32.3225171 91.6950477L46.2022176 91.6950477C47.0849576 91.6950477 47.8003182 90.9723366 47.8003182 90.0818532zM1.66329372 41.1547412L10.8776921 41.1547412C11.7614982 41.1547412 12.4768587 40.4331056 12.4768587 39.5415468 12.4768587 38.649988 11.7614982 37.9283523 10.8776921 37.9283523L1.66329372 37.9283523C.779487608 37.9283523.0641270524 38.649988.0641270524 39.5415468.0641270524 40.4331056.779487608 41.1547412 1.66329372 41.1547412zM78.4595415 39.5415468C78.4595415 38.649988 77.7441809 37.9283523 76.8603748 37.9283523L67.6459765 37.9283523C66.7621704 37.9283523 66.0468098 38.649988 66.0468098 39.5415468 66.0468098 40.4331056 66.7621704 41.1547412 67.6459765 41.1547412L76.8603748 41.1547412C77.7441809 41.1547412 78.4595415 40.4331056 78.4595415 39.5415468zM37.6626676 1.61319444L37.6626676 10.9084208C37.6626676 11.7999796 38.3780282 12.5216153 39.2618343 12.5216153 40.1456404 12.5216153 40.8610009 11.7999796 40.8610009 10.9084208L40.8610009 1.61319444C40.8610009.721635648 40.1456404 0 39.2618343 0 38.3780282 0 37.6626676.721635648 37.6626676 1.61319444zM64.7173693 11.5816606L58.2023643 18.1538148C57.5776232 18.7829606 57.5776232 19.8057259 58.2023643 20.4348718 58.5147348 20.7499824 58.9241215 20.907 59.3335082 20.907 59.7428948 20.907 60.1522815 20.7499824 60.4646521 20.4348718L66.9796571 13.8627176C67.6043982 13.2335718 67.6043982 12.2108065 66.9796571 11.5816606 66.3538498 10.9514394 65.3421104 10.9514394 64.7173693 11.5816606L64.7173693 11.5816606zM20.3213043 58.6482218C19.6965632 58.0180005 18.6848237 58.0180005 18.0600826 58.6482218L11.5450776 65.2203759C10.9203365 65.8495218 10.9203365 66.8712116 11.5450776 67.5014329 11.8574482 67.8165435 12.2668348 67.9735611 12.6762215 67.9735611 13.0856082 67.9735611 13.4949948 67.8165435 13.8073654 67.5014329L20.3223704 60.9292787C20.9460454 60.3001329 20.9460454 59.2784431 20.3213043 58.6482218zM18.0600826 20.4348718C18.3724532 20.7499824 18.7818398 20.907 19.1912265 20.907 19.6006132 20.907 20.0099998 20.7499824 20.3223704 20.4348718 20.9471115 19.8057259 20.9471115 18.7829606 20.3223704 18.1538148L13.8073654 11.5816606C13.1826243 10.9514394 12.1708848 10.9514394 11.5461437 11.5816606 10.9214026 12.2108065 10.9214026 13.2335718 11.5461437 13.8627176L18.0600826 20.4348718zM64.7173693 67.5014329C65.0297398 67.8165435 65.4391265 67.9735611 65.8485132 67.9735611 66.2578998 67.9735611 66.6672865 67.8165435 66.9796571 67.5014329 67.6043982 66.8712116 67.6043982 65.8495218 66.9796571 65.2203759L60.4646521 58.6482218C59.8399109 58.0180005 58.8281715 58.0180005 58.2034304 58.6482218 57.5786893 59.2784431 57.5786893 60.3001329 58.2034304 60.9292787L64.7173693 67.5014329zM44.3301265 95.1784722C44.3301265 94.2869134 43.6147659 93.5652778 42.7309598 93.5652778L35.7916426 93.5652778C34.9078365 93.5652778 34.1924759 94.2869134 34.1924759 95.1784722 34.1924759 96.070031 34.9078365 96.7916667 35.7916426 96.7916667L42.7309598 96.7916667C43.6147659 96.7916667 44.3301265 96.070031 44.3301265 95.1784722z" transform="matrix(-1 0 0 1 78.477 .104)"/>
</svg>
