<svg xmlns="http://www.w3.org/2000/svg" viewBox="0 0 750 936">
  <g fill="none" fill-rule="evenodd">
    <path d="M0 0h750v936H0z"/>
    <g transform="translate(23 52)">
      <circle cx="273" cy="165" r="43" stroke="#DDEFF4" stroke-width="3"/>
      <circle cx="213" cy="643" r="60" stroke="#FFDA51" stroke-width="3"/>
      <circle cx="596.5" cy="259.5" r="88.5" stroke="#4494A6" stroke-width="3"/>
      <path stroke="#4494A6" stroke-width="3" d="M116.59573072 197.53840202l98.42134864 33.97379773-33.81408117 98.45201818-98.42102307-33.97474325z"/>
      <path stroke="#DDEFF4" stroke-width="3" d="M615.28542327 410.9974773l87.94773093 91.20498062-91.07788281 88.08078411-87.94845027-91.20428595z"/>
      <path stroke="#FFDA51" stroke-width="3" d="M22 312l124 131"/>
      <path stroke="#4494A6" stroke-width="3" d="M497 588l108 69"/>
      <path stroke="#FFDA51" stroke-width="3" d="M362.48773336 61.76384397l164.53667692 42.64985261-121.9695558 122.21845739z"/>
      <path stroke="#4494A6" stroke-width="3" d="M320.94614758 612.47584397l164.53667691 42.64985261-121.97097 122.21845739z"/>
      <circle cx="367.5" cy="411.5" r="24.5" fill="#DDEFF4" fill-rule="nonzero" stroke="#DDEFF4" stroke-width="3.035"/>
      <path stroke="#DDEFF4" stroke-width="3" d="M43.76039085 471.75531264l118.32300612 31.71656756-86.6637142 86.84473355z"/>
    </g>
  </g>
</svg>
