<svg xmlns="http://www.w3.org/2000/svg" width="12" height="12" viewBox="0 0 12 12">
  <g fill="none" fill-rule="evenodd" transform="translate(-5 -5)">
    <polygon points="0 0 22 0 22 22 0 22"/>
    <path fill="#000" fill-rule="nonzero" d="M7.71222222,10.2605556 C8.59222222,11.99 10.01,13.4016667 11.7394444,14.2877778 L13.0838889,12.9433333 C13.2488889,12.7783333 13.4933333,12.7233333 13.7072222,12.7966667 C14.3916667,13.0227778 15.1311111,13.145 15.8888889,13.145 C16.225,13.145 16.5,13.42 16.5,13.7561111 L16.5,15.8888889 C16.5,16.225 16.225,16.5 15.8888889,16.5 C10.1505556,16.5 5.5,11.8494444 5.5,6.11111111 C5.5,5.775 5.775,5.5 6.11111111,5.5 L8.25,5.5 C8.58611111,5.5 8.86111111,5.775 8.86111111,6.11111111 C8.86111111,6.875 8.98333333,7.60833333 9.20944444,8.29277778 C9.27666667,8.50666667 9.22777778,8.745 9.05666667,8.91611111 L7.71222222,10.2605556 Z"/>
  </g>
</svg>
