<svg xmlns="http://www.w3.org/2000/svg" width="101" height="101" viewBox="0 0 101 101">
  <g transform="rotate(-180 50.5 50.5)">
    <path d="M28.721102,100.827888 C21.2141224,100.037408 14.0431224,96.5209592 8.88696939,91.0690204 C2.64352041,84.5102041 -0.67505102,75.245 0.115428571,66.5528163 C0.412244898,63.3723469 0.787387755,61.5945408 1.75513265,58.6706939 C5.48904082,47.4102245 15.5241122,39.073602 27.4565408,37.3153776 C30.419551,36.8804592 35.5561224,37.0185612 38.3418673,37.6317755 C43.4392755,38.7180408 48.1996735,40.9905408 52.1510408,44.2101735 C52.7828061,44.7234184 53.3558265,45.1387551 53.4351837,45.1387551 C53.5341224,45.1387551 56.2405102,42.4911122 59.4601429,39.251898 L65.3274184,33.3846224 L64.9120816,32.1994184 C64.6358776,31.3501939 64.5369388,30.717398 64.6152653,30.0062755 C64.8523061,27.7141939 64.5565204,28.0501735 78.7398061,13.8854388 C93.3600714,-0.694632653 92.5500102,-0.0226734694 95.1770408,0.0164897959 C98.4172857,0.0556530612 100.945378,2.58477551 100.985571,5.82502041 C101.024735,8.45205102 101.677112,7.66260204 87.1959796,22.1818673 C79.3138571,30.1041837 73.8217245,35.4582143 73.3476429,35.6952551 C72.2613776,36.2682755 69.8703571,36.4063776 68.5862143,35.9714592 L67.6184694,35.6550612 L61.7511939,41.5223367 C58.510949,44.7625816 55.8643367,47.488551 55.8643367,47.5668776 C55.8643367,47.6462347 56.3384184,48.3181939 56.9310204,49.048898 C64.5565204,58.5315612 66.0777041,71.5110918 60.8823878,82.6324286 C57.9389592,88.9542041 52.1706224,94.7823163 45.9282041,97.7649082 C40.4556531,100.394 34.5090204,101.440071 28.721102,100.827888 Z M37.7884286,97.1341735 C49.1282551,94.6648265 57.7019184,86.0313878 60.1516837,74.5740714 C60.6649286,72.1634694 60.6649286,65.6840102 60.132102,63.313602 C57.583398,51.597602 48.5552347,42.8064796 36.8794286,40.6731122 C34.3111429,40.1990306 29.5301327,40.2186122 27.0216224,40.6926939 C15.1881327,42.925 6.15996939,51.8552551 3.76997959,63.648551 C3.27631633,66.117898 3.27631633,72.044949 3.76997959,74.3751633 C4.99434694,80.1435 7.6419898,85.1017755 11.6716837,89.1520816 C16.2352347,93.7949898 21.8263061,96.5405408 28.7004898,97.5680612 C30.1825102,97.7855204 36.0497857,97.5093163 37.7884286,97.1341735 Z M71.7275204,32.8703469 C72.3397041,32.553949 97.1125306,7.82028571 97.4680918,7.16893878 C98.6141327,5.0159898 96.3818265,2.58580612 94.0505816,3.47419388 C93.4188163,3.69165306 68.6449592,28.3459592 68.1914898,29.175602 C67.5597245,30.3608061 68.0131939,32.0005102 69.1592347,32.692051 C69.8507755,33.1269694 71.0565918,33.2063265 71.7275204,32.8703469 Z"/>
    <path d="M22.0829286,89.8642347 C19.001398,88.4615714 14.7934082,84.8461837 12.8970816,81.9821122 C11.4356735,79.7693878 10.5854184,77.9122245 10.7039388,77.2412959 C10.8616224,76.4910102 11.4944184,75.9571531 12.2447041,75.9571531 C13.1732857,75.9571531 13.5288469,76.273551 14.2791327,77.7545408 C15.3066531,79.808551 16.4526939,81.4286735 18.0130408,82.990051 C19.4548673,84.4318776 22.1416735,86.3282041 23.6824388,86.9805816 C24.7882857,87.4546633 25.1242653,87.87 25.1242653,88.7388061 C25.1242653,89.252051 24.9861633,89.568449 24.5708265,89.9044286 C23.9009286,90.496 23.4464286,90.4764184 22.0829286,89.8642347 Z"/>
  </g>
</svg>
