<svg xmlns="http://www.w3.org/2000/svg" width="427" height="450" viewBox="0 0 427 450">
  <g fill="none" stroke-width="3.528" transform="translate(-43 -40)">
    <circle cx="201.5" cy="107.5" r="26.736" stroke="#DDEFF4"/>
    <circle cx="164" cy="403" r="37.236" stroke="#FFDA51"/>
    <circle cx="401.5" cy="165.5" r="54.736" stroke="#4494A6"/>
    <path stroke="#4494A6" d="M92.2053132,136.185977 L92.2612056,200.599109 L156.674248,200.654916 L156.618356,136.241784 L92.2053132,136.185977 Z" transform="rotate(19 124.44 168.42)"/>
    <path stroke="#DDEFF4" d="M372.938303,275.867543 L373.006333,354.268556 L451.407237,354.336482 L451.339207,275.935469 L372.938303,275.867543 Z" transform="rotate(46 412.173 315.102)"/>
    <line x1="45.5" x2="122.5" y1="198.5" y2="279.5" stroke="#FFDA51"/>
    <line x1="340" x2="407" y1="369.023" y2="411.5" stroke="#4494A6"/>
    <path stroke="#FFDA51" d="M288.198244,30.415381 L234.680155,121.171745 L341.507957,121.047497 L288.198244,30.415381 Z" transform="rotate(-45 288.09 74.94)"/>
    <path stroke="#4494A6" d="M262.482653,371.415381 L208.964563,462.171745 L315.792366,462.047497 L262.482653,371.415381 Z" transform="rotate(-45 262.374 415.94)"/>
    <circle cx="260" cy="260" r="15.236" fill="#DDEFF4" stroke="#DDEFF4"/>
    <path stroke="#DDEFF4" d="M82.0173808,287.93557 L44.0000617,353.642273 L119.886677,353.552319 L82.0173808,287.93557 Z" transform="rotate(-45 81.94 319.91)"/>
  </g>
</svg>
