<svg xmlns="http://www.w3.org/2000/svg" width="189" height="374" viewBox="0 0 189 374">
  <g fill="none" fill-rule="evenodd" transform="translate(0 -19)">
    <path stroke="#4494A6" stroke-width="3.528" d="M193.082214,299.283028 L7.94223056,299.342081 C8.39764275,324.267149 18.65904,346.786273 35.0244525,363.188106 C51.7734082,379.974335 74.9158849,390.352998 100.48215,390.344846 C126.049037,390.336689 149.198586,379.942836 165.958602,363.145544 C182.334336,346.73339 192.610356,324.208113 193.082214,299.283028 Z" transform="rotate(-8 100.513 344.814)"/>
    <circle cx="100.5" cy="267.5" r="26.736" stroke="#DDEFF4" stroke-width="3.528"/>
    <ellipse cx="121.5" cy="36" fill="#DDEFF4" fill-rule="nonzero" stroke="#DDEFF4" stroke-width="3.528" rx="14.909" ry="15.236"/>
    <path stroke="#4494A6" stroke-width="3.528" d="M66.4981228,155.108298 L66.5569192,222.971721 L134.311281,223.030512 L134.252484,155.167089 L66.4981228,155.108298 Z" transform="rotate(24.3 100.405 189.07)"/>
    <path stroke="#FFDA51" stroke-width="3.528" d="M107.237811,30.5462627 L53.0803824,121.821484 L161.184373,121.696526 L107.237811,30.5462627 Z" transform="rotate(-45 107.128 75.338)"/>
    <line x1="179" x2="26" y1="244" y2="230" stroke="#FFDA51" stroke-linecap="square" stroke-width="3.528"/>
  </g>
</svg>
