<svg xmlns="http://www.w3.org/2000/svg" width="77" height="101" viewBox="0 0 77 101">
  <g fill-rule="evenodd" transform="matrix(-1 0 0 1 77.375 0)">
    <path fill-rule="nonzero" d="M32.1973164,23.5223684 L37.6075212,23.5223684 L37.6075212,28.9710526 C37.6075212,29.7684211 38.135346,30.3 38.9270833,30.3 C39.7188206,30.3 40.2466455,29.7684211 40.2466455,28.9710526 L40.2466455,23.5223684 L45.6568503,23.5223684 C46.4485876,23.5223684 46.9764124,22.9907895 46.9764124,22.1934211 C46.9764124,21.3960526 46.4485876,20.8644737 45.6568503,20.8644737 L40.2466455,20.8644737 L40.2466455,15.4157895 C40.2466455,14.6184211 39.7188206,14.0868421 38.9270833,14.0868421 C38.135346,14.0868421 37.6075212,14.6184211 37.6075212,15.4157895 L37.6075212,20.8644737 L32.1973164,20.8644737 C31.4055791,20.8644737 30.8777542,21.3960526 30.8777542,22.1934211 C30.8777542,22.9907895 31.5375353,23.5223684 32.1973164,23.5223684 Z"/>
    <path fill-rule="nonzero" d="M76.0067797,100.867105 C76.7985169,100.867105 77.3263418,100.335526 77.3263418,99.5381579 L77.3263418,1.59473684 C77.3263418,0.797368421 76.7985169,0.265789474 76.0067797,0.265789474 L1.71543079,0.265789474 C0.923693503,0.265789474 0.395868644,0.797368421 0.395868644,1.59473684 L0.395868644,99.4052632 C0.395868644,100.202632 0.923693503,100.734211 1.71543079,100.734211 L76.0067797,100.734211 L76.0067797,100.867105 Z M3.03499294,87.0460526 L13.9873588,98.0763158 L3.03499294,98.0763158 L3.03499294,87.0460526 Z M15.8347458,96.3486842 L4.88237994,85.3184211 L15.8347458,85.3184211 L15.8347458,96.3486842 Z M74.6872175,2.92368421 L74.6872175,98.0763158 L18.4738701,98.0763158 L18.4738701,83.8565789 C18.4738701,83.0592105 17.9460452,82.5276316 17.1543079,82.5276316 L3.03499294,82.5276316 L3.03499294,2.92368421 L74.6872175,2.92368421 Z"/>
    <path fill-rule="nonzero" d="M14.2512712 41.8618421L63.9987641 41.8618421C64.7905014 41.8618421 65.3183263 41.3302632 65.3183263 40.5328947 65.3183263 39.7355263 64.7905014 39.2039474 63.9987641 39.2039474L14.2512712 39.2039474C13.4595339 39.2039474 12.931709 39.7355263 12.931709 40.5328947 12.931709 41.3302632 13.5914901 41.8618421 14.2512712 41.8618421zM14.2512712 53.1578947L63.9987641 53.1578947C64.7905014 53.1578947 65.3183263 52.6263158 65.3183263 51.8289474 65.3183263 51.0315789 64.7905014 50.5 63.9987641 50.5L14.2512712 50.5C13.4595339 50.5 12.931709 51.0315789 12.931709 51.8289474 12.931709 52.6263158 13.5914901 53.1578947 14.2512712 53.1578947zM14.2512712 64.4539474L63.9987641 64.4539474C64.7905014 64.4539474 65.3183263 63.9223684 65.3183263 63.125 65.3183263 62.3276316 64.7905014 61.7960526 63.9987641 61.7960526L14.2512712 61.7960526C13.4595339 61.7960526 12.931709 62.3276316 12.931709 63.125 12.931709 63.9223684 13.5914901 64.4539474 14.2512712 64.4539474zM14.2512712 75.8828947L63.9987641 75.8828947C64.7905014 75.8828947 65.3183263 75.3513158 65.3183263 74.5539474 65.3183263 73.7565789 64.7905014 73.225 63.9987641 73.225L14.2512712 73.225C13.4595339 73.225 12.931709 73.7565789 12.931709 74.5539474 12.931709 75.3513158 13.5914901 75.8828947 14.2512712 75.8828947z"/>
  </g>
</svg>
