<svg xmlns="http://www.w3.org/2000/svg" width="282" height="198" viewBox="0 0 282 198">
  <path d="M254.8,0 L23.2,0 C10.6,0 0.1,10.2 0.1,23.1 L0.1,174.9 C0.1,187.5 10.3,198 23.2,198 L254.8,198 C267.4,198 277.9,187.8 277.9,174.9 L277.9,23.1 C277.9,10.5 267.4,0 254.8,0 Z M148.9,108.3 C143.5,113.1 134.2,113.1 128.8,108.3 L18.4,11.7 C19.9,11.1 21.7,10.5 23.5,10.5 L255.1,10.5 C256.9,10.5 258.4,10.8 260.2,11.7 L148.9,108.3 Z M108.1,103.8 L122.2,116.1 C126.7,120 132.7,122.1 139,122.1 C145.3,122.1 151.3,120 155.8,116.1 L169.9,103.8 L256.6,187.2 C256,187.2 255.4,187.2 255.1,187.2 L23.2,187.2 C22.6,187.2 22,187.2 21.7,187.2 L108.1,103.8 Z M177.7,96.9 L266.8,19.2 C267.1,20.4 267.4,21.6 267.4,23.1 L267.4,174.9 C267.4,177.3 266.8,179.7 265.3,181.5 L177.7,96.9 Z M100.3,96.9 L12.7,181.5 C11.5,179.4 10.6,177.3 10.6,174.9 L10.6,23.1 C10.6,21.9 10.9,20.4 11.2,19.2 L100.3,96.9 Z" transform="translate(2)"/>
</svg>
