<svg xmlns="http://www.w3.org/2000/svg" width="189" height="36" viewBox="0 0 189 36">
  <path fill="#343434" d="M13.1807133,32.9470715 C16.3557135,32.9470715 18.913697,32.1099132 20.8546638,30.4355968 C22.7956307,28.7612803 23.8715341,26.4668466 24.0823739,23.5522957 L24.0823739,23.5522957 L18.501319,23.5522957 C18.3772956,25.2018075 17.8905036,26.4203378 17.040943,27.2078867 C16.1913824,27.9954355 14.9046392,28.38921 13.1807133,28.38921 C11.2707523,28.38921 9.87238801,27.7132822 8.98562039,26.3614267 C8.09885278,25.0095711 7.65546897,22.8701668 7.65546897,19.9432135 L7.65546897,19.9432135 L7.65546897,17.8968267 C7.68027366,15.0938969 8.15466333,13.025806 9.07863798,11.692554 C10.0026126,10.359302 11.3947758,9.69267601 13.2551274,9.69267601 C14.9666509,9.69267601 16.2409918,10.0864504 17.07815,10.8739993 C17.9153082,11.6615482 18.4021003,12.9296879 18.538526,14.6784184 L18.538526,14.6784184 L24.119581,14.6784184 C23.8219247,11.6522464 22.7181161,9.30200216 20.808155,7.62768569 C18.898194,5.95336922 16.3805181,5.11621098 13.2551274,5.11621098 C10.9979007,5.11621098 9.01662626,5.6464112 7.31130392,6.70681163 C5.60598159,7.76721206 4.29443368,9.28959982 3.37666021,11.2739749 C2.45888674,13.25835 2,15.5527837 2,18.157276 L2,18.157276 L2,19.8129889 C2,23.8933602 2.99528813,27.1024667 4.98586438,29.4403086 C6.97644063,31.7781505 9.70805695,32.9470715 13.1807133,32.9470715 Z M31.6567608,32.5750011 L31.6567608,4 L26.2617411,4 L26.2617411,32.5750011 L31.6567608,32.5750011 Z M40.719429,32.9470715 C42.8030229,32.9470715 44.4959429,32.2215343 45.798189,30.77046 C45.9098101,31.489796 46.0896441,32.0913097 46.337691,32.5750011 L46.337691,32.5750011 L51.7699177,32.5750011 L51.7699177,32.2587414 C51.2490193,31.2789562 50.9823689,29.8340831 50.9699665,27.924122 L50.9699665,27.924122 L50.9699665,19.1990729 C50.9699665,16.9418462 50.2413288,15.1900151 48.7840534,13.9435795 C47.3267779,12.6971439 45.3579058,12.0739261 42.8774369,12.0739261 C41.2403275,12.0739261 39.7644485,12.3560794 38.4498,12.9203861 C37.1351515,13.4846928 36.1181593,14.2629399 35.3988233,15.2551274 C34.6794874,16.2473149 34.3198194,17.3263189 34.3198194,18.4921392 L34.3198194,18.4921392 L39.6962356,18.4921392 C39.6962356,17.7355962 39.9535843,17.1402837 40.4682816,16.7062017 C40.9829788,16.2721196 41.6930131,16.0550786 42.5983842,16.0550786 C43.6277788,16.0550786 44.3812212,16.3341313 44.8587114,16.8922368 C45.3362017,17.4503423 45.5749468,18.194483 45.5749468,19.1246588 L45.5749468,19.1246588 L45.5749468,20.2780768 L43.1006791,20.2780768 C40.1117142,20.2904792 37.8265822,20.8671882 36.2452833,22.0082038 C34.6639845,23.1492195 33.873335,24.786329 33.873335,26.9195322 C33.873335,28.6558604 34.5213575,30.0945323 35.8174025,31.235548 C37.1134474,32.3765636 38.7474563,32.9470715 40.719429,32.9470715 Z M41.8914506,28.8356943 C41.0728958,28.8356943 40.4279739,28.6186533 39.9566849,28.1845713 C39.4853958,27.7504892 39.2497512,27.1985849 39.2497512,26.5288583 L39.2497512,26.5288583 L39.2683548,26.2125985 C39.4419876,24.3522469 40.8744583,23.4220711 43.565767,23.4220711 L43.565767,23.4220711 L45.5749468,23.4220711 L45.5749468,26.8823251 C45.2524858,27.4776377 44.7563921,27.9520273 44.0866655,28.3054941 C43.4169389,28.6589609 42.6852006,28.8356943 41.8914506,28.8356943 Z M60.2372734,32.9470715 C62.5813165,32.9470715 64.4168634,32.1409191 65.7439143,30.5286143 L65.7439143,30.5286143 L65.8927424,32.5750011 L70.9528989,32.5750011 L70.9528989,12.4459964 L65.5578791,12.4459964 L65.5578791,26.69629 C64.8757502,27.9613291 63.6231134,28.5938486 61.7999688,28.5938486 C59.8900078,28.5938486 58.9350273,27.5458505 58.9350273,25.4498544 L58.9350273,25.4498544 L58.9350273,12.4459964 L53.5586111,12.4459964 L53.5586111,25.6358895 C53.5834157,28.029542 54.1632253,29.8464854 55.2980398,31.0867198 C56.4328543,32.3269543 58.0792655,32.9470715 60.2372734,32.9470715 Z M80.6108796,32.9470715 C82.7192781,32.9470715 84.443204,32.1099132 85.7826571,30.4355968 L85.7826571,30.4355968 L86.0431064,32.5750011 L90.8986241,32.5750011 L90.8986241,4 L85.5036044,4 L85.5036044,14.269141 C84.2261629,12.8056644 82.607657,12.0739261 80.6480866,12.0739261 C78.2048248,12.0739261 76.2793609,13.0041019 74.8716948,14.8644536 C73.4640287,16.7248052 72.7601957,19.2238776 72.7601957,22.3616707 C72.7601957,25.6854989 73.4764311,28.2806894 74.9089018,30.1472422 C76.3413726,32.0137951 78.2420318,32.9470715 80.6108796,32.9470715 Z M81.9875398,28.5938486 C80.734903,28.5938486 79.7799225,28.0915537 79.1225983,27.0869638 C78.465274,26.0823739 78.1366119,24.6375008 78.1366119,22.7523445 C78.1366119,18.5479498 79.4326569,16.4457524 82.0247468,16.4457524 C83.6742586,16.4457524 84.8338778,17.1464849 85.5036044,18.5479498 L85.5036044,18.5479498 L85.5036044,26.4916513 C84.8214755,27.8931162 83.6494539,28.5938486 81.9875398,28.5938486 Z M96.6312629,10.0275393 C97.536634,10.0275393 98.2652718,9.76709007 98.8171761,9.24619161 C99.3690804,8.72529316 99.6450326,8.05556657 99.6450326,7.23701185 C99.6450326,6.43085947 99.372181,5.76733405 98.8264778,5.2464356 C98.2807747,4.72553714 97.5490364,4.46508791 96.6312629,4.46508791 C95.7010871,4.46508791 94.9662482,4.72553714 94.4267462,5.2464356 C93.8872443,5.76733405 93.6174933,6.43085947 93.6174933,7.23701185 C93.6174933,8.05556657 93.8934454,8.72529316 94.4453497,9.24619161 C94.9972541,9.76709007 95.7258918,10.0275393 96.6312629,10.0275393 Z M99.3287728,32.5750011 L99.3287728,12.4459964 L93.933753,12.4459964 L93.933753,32.5750011 L99.3287728,32.5750011 Z M108.391441,32.9470715 C110.475035,32.9470715 112.167955,32.2215343 113.470201,30.77046 C113.581822,31.489796 113.761656,32.0913097 114.009703,32.5750011 L114.009703,32.5750011 L119.44193,32.5750011 L119.44193,32.2587414 C118.921031,31.2789562 118.654381,29.8340831 118.641979,27.924122 L118.641979,27.924122 L118.641979,19.1990729 C118.641979,16.9418462 117.913341,15.1900151 116.456065,13.9435795 C114.99879,12.6971439 113.029918,12.0739261 110.549449,12.0739261 C108.912339,12.0739261 107.43646,12.3560794 106.121812,12.9203861 C104.807164,13.4846928 103.790171,14.2629399 103.070835,15.2551274 C102.351499,16.2473149 101.991831,17.3263189 101.991831,18.4921392 L101.991831,18.4921392 L107.368248,18.4921392 C107.368248,17.7355962 107.625596,17.1402837 108.140294,16.7062017 C108.654991,16.2721196 109.365025,16.0550786 110.270396,16.0550786 C111.299791,16.0550786 112.053233,16.3341313 112.530723,16.8922368 C113.008214,17.4503423 113.246959,18.194483 113.246959,19.1246588 L113.246959,19.1246588 L113.246959,20.2780768 L110.772691,20.2780768 C107.783726,20.2904792 105.498594,20.8671882 103.917295,22.0082038 C102.335996,23.1492195 101.545347,24.786329 101.545347,26.9195322 C101.545347,28.6558604 102.193369,30.0945323 103.489414,31.235548 C104.785459,32.3765636 106.419468,32.9470715 108.391441,32.9470715 Z M109.563463,28.8356943 C108.744908,28.8356943 108.099986,28.6186533 107.628697,28.1845713 C107.157408,27.7504892 106.921763,27.1985849 106.921763,26.5288583 L106.921763,26.5288583 L106.940367,26.2125985 C107.114,24.3522469 108.54647,23.4220711 111.237779,23.4220711 L111.237779,23.4220711 L113.246959,23.4220711 L113.246959,26.8823251 C112.924498,27.4776377 112.428404,27.9520273 111.758677,28.3054941 C111.088951,28.6589609 110.357213,28.8356943 109.563463,28.8356943 Z M147.948028,32.5750011 L147.948028,28.0915537 L135.372051,28.0915537 L135.372051,20.8361823 L146.087677,20.8361823 L146.087677,16.464356 L135.372051,16.464356 L135.372051,10.0089358 L147.910821,10.0089358 L147.910821,5.48828131 L129.790996,5.48828131 L129.790996,32.5750011 L147.948028,32.5750011 Z M157.568802,32.9470715 C159.106693,32.9470715 160.511258,32.6339123 161.782498,32.0075939 C163.053739,31.3812755 164.055228,30.5007091 164.786966,29.3658946 C165.518705,28.2310801 165.890775,26.9815439 165.903177,25.617286 L165.903177,25.617286 L160.861624,25.617286 C160.83682,26.5226571 160.514359,27.2481943 159.894242,27.7938974 C159.274124,28.3396006 158.467972,28.6124521 157.475784,28.6124521 C156.185941,28.6124521 155.224759,28.1597666 154.592239,27.2543955 C153.95972,26.3490243 153.64346,24.860743 153.64346,22.7895515 L153.64346,22.7895515 L153.64346,22.231446 C153.64346,20.1850592 153.96282,18.7060797 154.601541,17.7945074 C155.240262,16.8829351 156.185941,16.4271489 157.438577,16.4271489 C158.45557,16.4271489 159.274124,16.7527105 159.894242,17.4038335 C160.514359,18.0549566 160.83682,18.9014166 160.861624,19.9432135 L160.861624,19.9432135 L165.903177,19.9432135 C165.878373,17.5619634 165.106327,15.655103 163.58704,14.2226322 C162.067752,12.7901615 160.049271,12.0739261 157.531595,12.0739261 C154.654251,12.0739261 152.390823,12.9979007 150.741311,14.84585 C149.0918,16.6937993 148.267044,19.168067 148.267044,22.2686531 L148.267044,22.2686531 L148.267044,22.6221199 C148.267044,25.8467294 149.098001,28.373707 150.759915,30.2030528 C152.421829,32.0323986 154.691458,32.9470715 157.568802,32.9470715 Z M172.938062,32.5750011 L172.938062,26.4358407 L174.872828,24.501075 L180.044605,32.5750011 L186.220973,32.5750011 L178.314478,20.8361823 L185.588453,12.4459964 L179.133033,12.4459964 L173.979859,18.4921392 L172.938062,19.8315924 L172.938062,4 L167.561646,4 L167.561646,32.5750011 L172.938062,32.5750011 Z"/>
</svg>
